# xmcd CD database file
#
# Track frame offsets:
#	150
#	17338
#	40885
#	55758
#	74515
#	94543
#	119565
#	142738
#	165910
#	180310
#	193808
#	210398
#	230198
#	249535
#	275335
#
# Disc length: 4029 seconds
#
# Revision: 1
# Processed by: cddbd v1.4PL0 Copyright (c) Steve Scherf et al.
# Submitted via: CDex 1.50beta9
#
DISCID=c70fbb0f
DTITLE=Celia Cruz - The Best, Vol. 2
DYEAR=1994
DGENRE=Salsa
TTITLE0=Cao Cao Mani Picao
TTITLE1=Mi Caso
TTITLE2=Vieja Luna
TTITLE3=A Papa
TTITLE4=Besito de Coco
TTITLE5=Se Que Tu
TTITLE6=Feliz Encuentro
TTITLE7=Celia y la Matancera
TTITLE8=Tatalibaba
TTITLE9=Cuando Sali de Cuba
TTITLE10=Pachito Eche
TTITLE11=Las Divorciadas
TTITLE12=Oriza Eh
TTITLE13=Toro Mata
TTITLE14=Me Voy Contigo
EXTD=YEAR: 1994
EXTT0=
EXTT1=
EXTT2=
EXTT3=
EXTT4=
EXTT5=
EXTT6=
EXTT7=
EXTT8=
EXTT9=
EXTT10=
EXTT11=
EXTT12=
EXTT13=
EXTT14=
PLAYORDER=
